<svg width="126" height="141" viewBox="0 0 126 141" fill="none" xmlns="http://www.w3.org/2000/svg">
<path d="M18.6126 18.6947C38.2007 18.6947 54.08 34.6448 54.08 54.3204V59.021C44.6677 50.5592 32.2383 45.414 18.6126 45.414H0.878906V63.2268H18.6126C38.2007 63.2268 54.08 79.177 54.08 98.8525V107.046H0.878906V140.535H125.015V87.096H107.281C93.6553 87.096 81.2259 92.2413 71.8136 100.703V98.8525C71.8136 79.177 87.6929 63.2268 107.281 63.2268H125.015V45.414H107.281C93.6553 45.414 81.2259 50.5592 71.8136 59.021V54.3204C71.8136 34.6448 87.6929 18.6947 107.281 18.6947H125.015V0.881836H107.281C88.7762 0.881836 72.478 10.3717 62.9468 24.7707C53.4156 10.3717 37.1174 0.881836 18.6126 0.881836H0.878906V18.6947H18.6126Z" fill="#00162E"/>
</svg>
